<svg xmlns="http://www.w3.org/2000/svg" viewBox="0 0 800 600" width="800" height="600"><defs><linearGradient id="bg" x1="0" y1="0" x2="1" y2="1"><stop offset="0%" stop-color="#f8f5f0"/><stop offset="100%" stop-color="#eee8e0"/></linearGradient></defs><rect width="800" height="600" fill="url(#bg)"/><text x="400" y="120" text-anchor="middle" font-family="sans-serif" font-size="14" fill="rgba(0,0,0,0.3)" letter-spacing="6">WORKSPACE SETUP</text><rect x="100" y="250" width="600" height="8" rx="2" fill="rgba(0,0,0,0.06)"/><rect x="180" y="170" width="80" height="80" rx="4" fill="rgba(0,0,0,0.04)" stroke="rgba(0,0,0,0.08)" stroke-width="1"/><rect x="300" y="190" width="200" height="60" rx="4" fill="rgba(0,0,0,0.04)" stroke="rgba(0,0,0,0.08)" stroke-width="1"/><rect x="540" y="160" width="80" height="90" rx="4" fill="rgba(0,0,0,0.04)" stroke="rgba(0,0,0,0.08)" stroke-width="1"/><rect x="195" y="190" width="6" height="45" rx="2" fill="rgba(0,0,0,0.1)"/><rect x="210" y="195" width="6" height="40" rx="2" fill="rgba(0,0,0,0.08)"/><rect x="225" y="192" width="6" height="43" rx="2" fill="rgba(0,0,0,0.08)"/><rect x="315" y="205" width="80" height="3" rx="1" fill="rgba(0,0,0,0.1)"/><rect x="315" y="215" width="60" height="3" rx="1" fill="rgba(0,0,0,0.06)"/><text x="400" y="350" text-anchor="middle" font-family="Georgia,serif" font-size="22" fill="rgba(0,0,0,0.4)">On Your Desk</text><text x="400" y="380" text-anchor="middle" font-family="sans-serif" font-size="12" fill="rgba(0,0,0,0.25)">Pen Holder · Card Stand · Cable Organizer</text><text x="400" y="560" text-anchor="middle" font-family="sans-serif" font-size="13" fill="rgba(0,0,0,0.2)" letter-spacing="4">LIFESTYLE — WORKSPACE</text></svg>

